<?xml version="1.0" encoding="utf-8"?>
<!-- Svg Vector Icons : http://www.onlinewebfonts.com/icon -->
<!DOCTYPE svg PUBLIC "-//W3C//DTD SVG 1.1//EN" "http://www.w3.org/Graphics/SVG/1.1/DTD/svg11.dtd">
<svg version="1.1" xmlns="http://www.w3.org/2000/svg" xmlns:xlink="http://www.w3.org/1999/xlink" x="0px" y="0px" viewBox="0 0 1000 1000" enable-background="new 0 0 1000 1000" xml:space="preserve">
<metadata> Svg Vector Icons : http://www.onlinewebfonts.com/icon </metadata>
<g><g transform="translate(0.000000,512.000000) scale(0.100000,-0.100000)"><path d="M4853.2,5001.8c-53.6-13.4-128.4-42.2-164.8-65.1c-80.5-49.8-193.5-168.6-231.8-247.1c-42.1-80.5-74.7-266.3-61.3-331.4c11.5-55.6-63.2-153.3-1168.7-1532.7l-1184-1475.2h-178.2c-373.6,0-653.3-72.8-910-239.5C619.2,894.2,385.4,536,324.1,143.2C308.8,39.8,305-500.5,308.8-1801.3c5.7-1659.1,9.6-1810.5,40.2-1915.8c168.6-569,632.2-969.4,1207-1044.1c183.9-24.9,6701.6-24.9,6885.5,0c503.9,65.2,944.5,398.5,1138,860.2c113,273.9,113,256.7,113,2185.9c0,1915.8,0,1908.2-107.3,2172.6c-103.5,254.8-346.8,536.4-588.2,680.1c-115,67.1-377.4,162.9-498.1,180.1c-69,11.5-70.9,9.6-47.9-30.6c11.5-23,21.1-90,21.1-149.4c0-218.4-157.1-383.2-379.3-396.6c-130.3-9.6-206.9,19.2-302.7,109.2c-105.4,95.8-149.4,231.8-49.8,147.5c76.6-65.1,168.6-65.1,243.3-1.9c67.1,55.6,90,134.1,63.2,206.9c-11.5,28.7-565.2,733.8-1231.9,1569.1L5602.3,4291l-1.9,137.9c-3.8,172.4-65.1,310.4-191.6,427.2C5253.6,4997.9,5050.5,5051.6,4853.2,5001.8z M4895.3,3821.6c124.5-26.8,258.6-3.8,392.7,67.1l88.1,46L6405,2647.2l1028.8-1287.4l-2237.7-5.7l-2237.7-3.8l-160.9-251c-191.6-297-251-346.8-431.1-358.3c-93.9-5.8-134.1,1.9-201.2,38.3c-95.8,49.8-183.9,149.4-205,231.8l-11.5,53.7l57.5-59.4c70.9-70.9,164.8-76.6,241.4-17.2c28.7,23,572.8,693.5,1210.8,1492.4l1161,1452.2l84.3-44.1C4751.6,3863.8,4835.9,3833.1,4895.3,3821.6z M2004.3-759.1c193.5-93.9,329.5-297,337.2-502c3.8-122.6-36.4-195.4-134.1-235.6c-51.7-23-80.5-24.9-132.2-7.7c-76.6,26.8-141.8,101.5-141.8,166.7c0,90-53.6,178.2-126.5,208.8c-90,38.3-166.7,21.1-228-53.6l-47.9-57.5v-473.2c0-448.3,1.9-479,38.3-524.9c21.1-26.8,69-59.4,105.4-70.9c57.5-19.2,78.6-17.2,139.9,13.4c70.9,34.5,80.5,53.6,136,252.9c17.2,69,105.4,126.4,193.5,126.4c61.3,0,90-13.4,137.9-63.2c57.5-55.6,63.2-70.9,59.4-176.3c-5.7-285.4-222.2-524.9-521.1-576.7c-264.4-47.9-540.3,105.4-661,364c-38.3,84.3-40.2,118.8-40.2,653.3c0,534.5,1.9,569,40.2,653.3C1312.7-730.4,1678.6-600.1,2004.3-759.1z M3033.1-707.4c130.3-53.7,126.4-34.5,126.4-867.9v-752.9h346.8h346.8l65.1-65.1c74.7-74.7,86.2-153.3,32.6-243.3c-63.2-107.3-113-116.9-618.8-109.2c-448.3,5.7-457.9,5.7-503.9,49.8c-90,84.3-92,97.7-86.2,1013.5l5.7,864l47.9,51.7C2876-680.6,2933.5-665.3,3033.1-707.4z M5242.1-738.1c124.6-53.6,260.6-193.5,319.9-325.7l51.7-114.9l-5.7-559.4l-5.8-561.3l-51.7-95.8c-53.6-101.6-183.9-235.7-275.9-283.5c-168.6-86.2-410-78.6-574.7,17.2c-111.1,63.2-241.4,214.6-281.6,325.7c-46,134.1-49.8,1101.6-1.9,1239.5c36.4,107.3,172.4,264.4,285.5,331.5C4855.1-676.7,5073.5-665.3,5242.1-738.1z M7179-743.8c69-67.1,88.1-149.4,53.6-229.9c-46-111.1-67.1-118.8-388.9-128.4l-297-9.6l-55.6-63.2c-74.7-82.4-74.7-172.4-1.9-254.8c47.9-53.6,72.8-63.2,183.9-76.6c289.3-34.5,486.6-201.2,557.5-473.2c74.7-279.7-74.7-582.4-352.5-708.8c-95.8-44.1-136-49.8-387-57.5c-237.6-7.7-289.3-3.8-350.6,24.9c-139.8,67.1-168.6,220.3-61.3,327.6l65.1,65.1h251c302.7,0,371.7,21.1,415.7,126.4c63.2,149.4-17.2,254.8-212.6,277.8c-168.6,21.1-293.1,78.5-398.5,185.8c-128.4,132.2-176.3,247.1-176.3,434.9c0,174.3,38.3,279.7,145.6,400.4c153.3,176.3,300.8,222.2,682.1,216.5C7121.5-690.2,7123.5-690.2,7179-743.8z M8767.2-713.2c136-63.2,157.1-243.3,42.1-339.1c-57.5-49.8-61.3-49.8-402.3-49.8h-342.9v-199.2v-199.3l251-7.7l251-5.7l55.5-63.2c42.2-46,55.6-80.5,55.6-137.9c0-57.5-13.4-91.9-55.6-137.9l-55.5-63.2l-251-5.7l-251-7.7V-2129v-199.2h346.8h346.8l65.1-65.1c74.7-74.7,86.2-153.3,32.6-243.3c-63.2-107.3-113-116.9-618.8-109.2l-459.8,5.7l-61.3,63.2l-63.2,61.3v900.4v898.5l55.6,57.5c30.6,30.6,72.8,61.3,95.8,65.1c21.1,3.8,233.7,9.6,467.5,11.5C8635-680.6,8709.8-686.3,8767.2-713.2z"/><path d="M4929.8-1119.3c-23-9.6-59.4-42.1-82.4-70.9c-38.3-49.8-40.2-69-40.2-526.9v-477.1l55.6-61.3c46-51.7,69-63.2,136-63.2c67.1,0,90,11.5,136,63.2l55.6,61.3v479v479l-51.7,57.5C5081.2-1117.4,4994.9-1092.5,4929.8-1119.3z"/></g></g>
</svg>