<svg width="478" height="280" viewBox="0 0 478 280" fill="none" xmlns="http://www.w3.org/2000/svg">
    <g clip-path="url(#clip0_136_4)">
        <path
                                d="M453.039 0H24.4886C10.9639 0 0 10.0288 0 22.4V257.6C0 269.971 10.9639 280 24.4886 280H453.039C466.563 280 477.527 269.971 477.527 257.6V22.4C477.527 10.0288 466.563 0 453.039 0Z"
                                fill="#374D2F" fill-opacity="0.79" />
        <path
                                d="M339.929 231.392C338.72 231.392 337.79 231.094 337.137 230.496C336.484 229.899 336.158 229.055 336.158 227.965V216.922H337.896V227.875C337.896 228.562 338.084 229.092 338.46 229.466C338.851 229.839 339.406 230.026 340.125 230.026C340.892 230.026 341.529 229.824 342.035 229.421L342.647 230.563C342.304 230.847 341.888 231.056 341.398 231.19C340.924 231.325 340.435 231.392 339.929 231.392ZM333.856 220.842V219.52H341.815V220.842H333.856Z"
                                fill="#FF0000" />
        <path
                                d="M350.818 231.392C349.48 231.392 348.305 231.138 347.292 230.63C346.28 230.108 345.488 229.398 344.917 228.502C344.345 227.591 344.06 226.554 344.06 225.389C344.06 224.224 344.329 223.194 344.868 222.298C345.423 221.402 346.174 220.7 347.121 220.192C348.084 219.669 349.162 219.408 350.353 219.408C351.562 219.408 352.631 219.662 353.561 220.17C354.508 220.662 355.251 221.364 355.79 222.275C356.328 223.171 356.598 224.209 356.598 225.389C356.598 225.463 356.59 225.546 356.573 225.635C356.573 225.71 356.573 225.792 356.573 225.882H345.382V224.694H355.643L354.957 225.165C354.957 224.314 354.753 223.559 354.345 222.902C353.953 222.23 353.414 221.708 352.729 221.334C352.043 220.961 351.251 220.774 350.353 220.774C349.472 220.774 348.68 220.961 347.978 221.334C347.276 221.708 346.729 222.23 346.337 222.902C345.945 223.574 345.749 224.343 345.749 225.21V225.456C345.749 226.352 345.962 227.143 346.386 227.83C346.827 228.502 347.431 229.033 348.198 229.421C348.982 229.794 349.872 229.981 350.867 229.981C351.651 229.981 352.378 229.854 353.047 229.6C353.733 229.346 354.32 228.958 354.81 228.435L355.79 229.466C355.218 230.093 354.5 230.57 353.635 230.899C352.786 231.228 351.847 231.392 350.818 231.392Z"
                                fill="#FF0000" />
        <path
                                d="M360.137 231.28V219.52H361.802V222.723L361.631 222.163C361.99 221.267 362.594 220.588 363.443 220.125C364.292 219.647 365.345 219.408 366.602 219.408V220.954C366.536 220.954 366.472 220.954 366.406 220.954C366.341 220.938 366.276 220.931 366.21 220.931C364.855 220.931 363.794 221.312 363.027 222.074C362.26 222.82 361.876 223.888 361.876 225.277V231.28H360.137Z"
                                fill="#FF0000" />
        <path
                                d="M370.619 231.28V218.042C370.619 216.996 370.953 216.153 371.623 215.51C372.292 214.868 373.255 214.547 374.512 214.547C375.002 214.547 375.475 214.607 375.933 214.726C376.389 214.846 376.773 215.033 377.084 215.286L376.496 216.474C376.251 216.279 375.965 216.138 375.639 216.048C375.312 215.943 374.961 215.891 374.586 215.891C373.851 215.891 373.288 216.078 372.896 216.451C372.504 216.825 372.308 217.377 372.308 218.109V219.901L372.357 220.64V231.28H370.619ZM368.317 220.842V219.52H376.276V220.842H368.317ZM378.626 231.28V219.52H380.365V231.28H378.626ZM379.508 216.922C379.149 216.922 378.847 216.81 378.602 216.586C378.357 216.362 378.235 216.093 378.235 215.779C378.235 215.466 378.357 215.204 378.602 214.995C378.847 214.771 379.149 214.659 379.508 214.659C379.867 214.659 380.169 214.764 380.414 214.973C380.659 215.182 380.781 215.443 380.781 215.757C380.781 216.086 380.659 216.362 380.414 216.586C380.185 216.81 379.883 216.922 379.508 216.922Z"
                                fill="#FF0000" />
        <path
                                d="M389.313 231.392C388.104 231.392 387.174 231.094 386.521 230.496C385.868 229.899 385.541 229.055 385.541 227.965V216.922H387.28V227.875C387.28 228.562 387.467 229.092 387.843 229.466C388.235 229.839 388.79 230.026 389.509 230.026C390.276 230.026 390.912 229.824 391.419 229.421L392.031 230.563C391.688 230.847 391.272 231.056 390.782 231.19C390.308 231.325 389.818 231.392 389.313 231.392ZM383.24 220.842V219.52H391.198V220.842H383.24Z"
                                fill="#FF0000" />
        <path
                                d="M395.606 231.392C395.248 231.392 394.937 231.273 394.676 231.034C394.431 230.795 394.308 230.503 394.308 230.16C394.308 229.802 394.431 229.51 394.676 229.286C394.937 229.062 395.248 228.95 395.606 228.95C395.966 228.95 396.267 229.062 396.512 229.286C396.774 229.51 396.904 229.802 396.904 230.16C396.904 230.503 396.774 230.795 396.512 231.034C396.267 231.273 395.966 231.392 395.606 231.392Z"
                                fill="#FF0000" />
        <path
                                d="M400.625 231.28V219.52H402.29V222.723L402.118 222.163C402.477 221.267 403.081 220.588 403.93 220.125C404.779 219.647 405.832 219.408 407.089 219.408V220.954C407.024 220.954 406.958 220.954 406.894 220.954C406.828 220.938 406.763 220.931 406.698 220.931C405.342 220.931 404.281 221.312 403.514 222.074C402.746 222.82 402.363 223.888 402.363 225.277V231.28H400.625Z"
                                fill="#FF0000" />
        <path
                                d="M415.767 231.392C414.674 231.392 413.719 231.206 412.902 230.832C412.086 230.459 411.449 229.899 410.992 229.152C410.551 228.406 410.331 227.472 410.331 226.352V219.52H412.069V226.173C412.069 227.427 412.404 228.375 413.073 229.018C413.759 229.645 414.714 229.958 415.938 229.958C416.837 229.958 417.612 229.794 418.265 229.466C418.935 229.122 419.44 228.63 419.783 227.987C420.143 227.345 420.322 226.576 420.322 225.68V219.52H422.061V231.28H420.395V228.054L420.665 228.637C420.257 229.503 419.62 230.182 418.755 230.675C417.906 231.153 416.91 231.392 415.767 231.392Z"
                                fill="#FF0000" />
        <path
                                d="M124.157 140V126.067L124.916 126.784H118.5V124.32H132.997V126.784H126.581L127.316 126.067V140H124.157Z"
                                fill="white" />
        <path
                                d="M138.682 130.838H147.204V133.235H138.682V130.838ZM138.927 137.558H148.6V140H135.743V124.32H148.257V126.762H138.927V137.558Z"
                                fill="white" />
        <path
                                d="M152.149 140V124.32H159.202C160.72 124.32 162.018 124.544 163.095 124.992C164.189 125.44 165.03 126.082 165.618 126.918C166.205 127.754 166.499 128.748 166.499 129.898C166.499 131.047 166.205 132.041 165.618 132.877C165.03 133.713 164.189 134.355 163.095 134.803C162.018 135.251 160.72 135.475 159.202 135.475H153.912L155.332 134.109V140H152.149ZM155.332 134.422L153.912 133.011H159.055C160.458 133.011 161.511 132.742 162.214 132.205C162.932 131.652 163.291 130.883 163.291 129.898C163.291 128.897 162.932 128.128 162.214 127.59C161.511 127.053 160.458 126.784 159.055 126.784H153.912L155.332 125.35V134.422Z"
                                fill="white" />
        <path
                                d="M169.51 140V124.32H176.563C178.081 124.32 179.379 124.544 180.457 124.992C181.551 125.44 182.391 126.082 182.979 126.918C183.567 127.754 183.861 128.748 183.861 129.898C183.861 131.047 183.567 132.041 182.979 132.877C182.391 133.713 181.551 134.355 180.457 134.803C179.379 135.251 178.081 135.475 176.563 135.475H171.274L172.694 134.109V140H169.51ZM172.694 134.422L171.274 133.011H176.416C177.82 133.011 178.873 132.742 179.575 132.205C180.293 131.652 180.653 130.883 180.653 129.898C180.653 128.897 180.293 128.128 179.575 127.59C178.873 127.053 177.82 126.784 176.416 126.784H171.274L172.694 125.35V134.422Z"
                                fill="white" />
        <path
                                d="M186.897 140V124.32H190.031V135.453L199.239 124.32H202.202V140H199.068V128.89L189.86 140H186.897Z"
                                fill="white" />
        <path
                                d="M210.609 140V126.067L211.368 126.784H204.952V124.32H219.449V126.784H213.033L213.768 126.067V140H210.609Z"
                                fill="white" />
        <path
                                d="M229.914 140.224C228.575 140.224 227.343 140.022 226.216 139.619C225.09 139.216 224.11 138.656 223.278 137.939C222.445 137.207 221.8 136.356 221.343 135.386C220.886 134.4 220.657 133.325 220.657 132.16C220.657 130.995 220.886 129.927 221.343 128.957C221.8 127.971 222.445 127.12 223.278 126.403C224.11 125.671 225.09 125.104 226.216 124.701C227.343 124.298 228.567 124.096 229.89 124.096C231.228 124.096 232.453 124.298 233.563 124.701C234.689 125.104 235.669 125.671 236.501 126.403C237.334 127.12 237.979 127.971 238.436 128.957C238.893 129.927 239.122 130.995 239.122 132.16C239.122 133.325 238.893 134.4 238.436 135.386C237.979 136.371 237.334 137.222 236.501 137.939C235.669 138.656 234.689 139.216 233.563 139.619C232.453 140.022 231.236 140.224 229.914 140.224ZM229.89 137.67C230.755 137.67 231.555 137.536 232.289 137.267C233.024 136.998 233.661 136.618 234.2 136.125C234.738 135.617 235.155 135.034 235.448 134.378C235.759 133.706 235.914 132.966 235.914 132.16C235.914 131.354 235.759 130.622 235.448 129.965C235.155 129.293 234.738 128.71 234.2 128.218C233.661 127.71 233.024 127.322 232.289 127.053C231.555 126.784 230.755 126.65 229.89 126.65C229.024 126.65 228.224 126.784 227.49 127.053C226.772 127.322 226.135 127.71 225.58 128.218C225.041 128.71 224.617 129.293 224.306 129.965C224.012 130.622 223.865 131.354 223.865 132.16C223.865 132.951 224.012 133.683 224.306 134.355C224.617 135.027 225.041 135.617 225.58 136.125C226.118 136.618 226.755 136.998 227.49 137.267C228.224 137.536 229.024 137.67 229.89 137.67Z"
                                fill="white" />
        <path
                                d="M242.641 140V124.32H249.694C251.212 124.32 252.51 124.544 253.588 124.992C254.682 125.44 255.522 126.082 256.11 126.918C256.698 127.754 256.992 128.748 256.992 129.898C256.992 131.047 256.698 132.041 256.11 132.877C255.522 133.713 254.682 134.355 253.588 134.803C252.51 135.251 251.212 135.475 249.694 135.475H244.405L245.825 134.109V140H242.641ZM245.825 134.422L244.405 133.011H249.547C250.951 133.011 252.004 132.742 252.706 132.205C253.424 131.652 253.784 130.883 253.784 129.898C253.784 128.897 253.424 128.128 252.706 127.59C252.004 127.053 250.951 126.784 249.547 126.784H244.405L245.825 125.35V134.422Z"
                                fill="white" />
        <path
                                d="M260.028 140V124.32H263.162V135.453L272.37 124.32H275.333V140H272.199V128.89L262.991 140H260.028Z"
                                fill="white" />
        <path
                                d="M290.106 140V134.982L290.89 135.632H285.87C284.433 135.632 283.193 135.415 282.148 134.982C281.119 134.534 280.327 133.9 279.772 133.078C279.217 132.242 278.94 131.242 278.94 130.077C278.94 128.867 279.233 127.837 279.821 126.986C280.409 126.119 281.242 125.462 282.319 125.014C283.397 124.551 284.662 124.32 286.115 124.32H293.241V140H290.106ZM278.989 140L283.225 134.4H286.433L282.343 140H278.989ZM290.106 134.042V125.978L290.89 126.784H286.213C284.907 126.784 283.903 127.06 283.201 127.613C282.515 128.15 282.172 128.957 282.172 130.032C282.172 131.062 282.498 131.862 283.152 132.429C283.821 132.982 284.8 133.258 286.09 133.258H290.89L290.106 134.042Z"
                                fill="white" />
        <path
                                d="M129.275 166.432C127.12 166.432 125.284 166.163 123.765 165.626C122.263 165.088 121.113 164.311 120.312 163.296C119.512 162.266 119.112 161.026 119.112 159.578C119.112 158.099 119.512 156.852 120.312 155.837C121.113 154.822 122.263 154.045 123.765 153.507C125.284 152.97 127.12 152.701 129.275 152.701C129.308 152.701 129.381 152.701 129.496 152.701C129.626 152.701 129.748 152.701 129.863 152.701C129.993 152.701 130.067 152.701 130.083 152.701C132.222 152.701 134.042 152.97 135.544 153.507C137.046 154.045 138.189 154.829 138.973 155.859C139.756 156.874 140.148 158.114 140.148 159.578C140.148 161.011 139.756 162.243 138.973 163.274C138.206 164.304 137.079 165.088 135.593 165.626C134.124 166.163 132.328 166.432 130.206 166.432C130.173 166.432 130.083 166.432 129.936 166.432C129.806 166.432 129.667 166.432 129.52 166.432C129.39 166.432 129.308 166.432 129.275 166.432ZM129.594 164.17C129.626 164.17 129.675 164.17 129.74 164.17C129.806 164.17 129.846 164.17 129.863 164.17C131.447 164.154 132.769 163.975 133.83 163.632C134.908 163.289 135.716 162.781 136.254 162.109C136.81 161.422 137.087 160.57 137.087 159.555C137.087 158.54 136.81 157.696 136.254 157.024C135.699 156.352 134.891 155.844 133.83 155.501C132.769 155.158 131.463 154.986 129.912 154.986C129.895 154.986 129.846 154.986 129.765 154.986C129.684 154.986 129.626 154.986 129.594 154.986C127.977 154.986 126.614 155.158 125.504 155.501C124.41 155.83 123.586 156.337 123.031 157.024C122.492 157.696 122.222 158.547 122.222 159.578C122.222 160.608 122.508 161.466 123.08 162.154C123.667 162.826 124.508 163.334 125.602 163.677C126.696 164.006 128.026 164.17 129.594 164.17ZM128.173 168.067V151.133H131.112V168.067H128.173Z"
                                fill="white" />
        <path
                                d="M143.516 167.44V151.76H146.65V162.893L155.858 151.76H158.821V167.44H155.687V156.33L146.479 167.44H143.516Z"
                                fill="white" />
        <path
                                d="M167.228 167.44V153.507L167.987 154.224H161.571V151.76H176.068V154.224H169.652L170.387 153.507V167.44H167.228Z"
                                fill="white" />
        <path
                                d="M190.862 151.76H194.045V167.44H190.862V151.76ZM181.997 167.44H178.813V151.76H181.997V167.44ZM191.106 160.72H181.727V158.234H191.106V160.72Z"
                                fill="white" />
        <path
                                d="M201.793 158.278H210.315V160.675H201.793V158.278ZM202.038 164.998H211.711V167.44H198.854V151.76H211.368V154.202H202.038V164.998Z"
                                fill="white" />
        <path
                                d="M223.144 167.664C221.838 167.664 220.622 167.47 219.495 167.082C218.385 166.678 217.414 166.118 216.581 165.402C215.765 164.67 215.128 163.811 214.671 162.826C214.214 161.84 213.985 160.765 213.985 159.6C213.985 158.435 214.214 157.36 214.671 156.374C215.128 155.389 215.773 154.538 216.606 153.821C217.438 153.089 218.41 152.529 219.52 152.141C220.63 151.738 221.846 151.536 223.169 151.536C224.573 151.536 225.854 151.76 227.013 152.208C228.173 152.641 229.152 153.29 229.953 154.157L227.895 155.926C227.275 155.314 226.581 154.858 225.814 154.56C225.046 154.246 224.214 154.09 223.316 154.09C222.418 154.09 221.593 154.224 220.843 154.493C220.108 154.762 219.463 155.142 218.908 155.635C218.37 156.128 217.945 156.71 217.634 157.382C217.34 158.054 217.193 158.794 217.193 159.6C217.193 160.406 217.34 161.146 217.634 161.818C217.945 162.49 218.37 163.072 218.908 163.565C219.463 164.058 220.108 164.438 220.843 164.707C221.593 164.976 222.418 165.11 223.316 165.11C224.214 165.11 225.046 164.961 225.814 164.662C226.581 164.349 227.275 163.878 227.895 163.251L229.953 165.043C229.152 165.894 228.173 166.544 227.013 166.992C225.854 167.44 224.565 167.664 223.144 167.664Z"
                                fill="white" />
        <path
                                d="M230.37 167.44L238.084 151.76H241.219L248.957 167.44H245.627L238.99 153.306H240.264L233.652 167.44H230.37ZM233.921 163.811L234.778 161.526H244.035L244.892 163.811H233.921Z"
                                fill="white" />
        <path
                                d="M397.327 37.8C397.327 27.1299 406.487 18.48 417.786 18.48H472.733C484.033 18.48 493.193 27.1299 493.193 37.8C493.193 48.4701 484.033 57.12 472.733 57.12H417.786C406.487 57.12 397.327 48.4701 397.327 37.8Z"
                                fill="#222222" />
        <path
                                d="M324.014 37.8C324.014 48.4701 314.854 57.12 303.555 57.12C292.255 57.12 283.095 48.4701 283.095 37.8C283.095 27.1299 292.255 18.48 303.555 18.48C314.854 18.48 324.014 27.1299 324.014 37.8Z"
                                fill="#222222" />
        <path
                                d="M378.961 37.8C378.961 48.4701 369.801 57.12 358.502 57.12C347.203 57.12 338.043 48.4701 338.043 37.8C338.043 27.1299 347.203 18.48 358.502 18.48C369.801 18.48 378.961 27.1299 378.961 37.8Z"
                                fill="#222222" />
        <path
                                d="M172.032 37.8C172.032 27.1299 181.192 18.48 192.491 18.48H247.438C258.738 18.48 267.898 27.1299 267.898 37.8C267.898 48.4701 258.738 57.12 247.438 57.12H192.491C181.192 57.12 172.032 48.4701 172.032 37.8Z"
                                fill="#222222" />
        <path
                                d="M95.0457 37.8C95.0457 48.4701 85.8857 57.12 74.5867 57.12C63.287 57.12 54.1273 48.4701 54.1273 37.8C54.1273 27.1299 63.287 18.48 74.5867 18.48C85.8857 18.48 95.0457 27.1299 95.0457 37.8Z"
                                fill="#222222" />
        <path
                                d="M149.993 37.8C149.993 48.4701 140.833 57.12 129.534 57.12C118.235 57.12 109.075 48.4701 109.075 37.8C109.075 27.1299 118.235 18.48 129.534 18.48C140.833 18.48 149.993 27.1299 149.993 37.8Z"
                                fill="#222222" />
        <path
                                d="M-56.9359 37.8C-56.9359 27.1299 -47.7761 18.48 -36.4769 18.48H18.4702C29.7694 18.48 38.9293 27.1299 38.9293 37.8C38.9293 48.4701 29.7694 57.12 18.4702 57.12H-36.4769C-47.7761 57.12 -56.9359 48.4701 -56.9359 37.8Z"
                                fill="#222222" />
        <path
                                d="M317.127 92.12C317.127 97.5324 312.33 101.92 306.413 101.92C300.496 101.92 295.7 97.5324 295.7 92.12C295.7 86.7076 300.496 82.32 306.413 82.32C312.33 82.32 317.127 86.7076 317.127 92.12Z"
                                fill="#222222" />
        <path
                                d="M345.901 92.12C345.901 97.5324 341.104 101.92 335.187 101.92C329.27 101.92 324.474 97.5324 324.474 92.12C324.474 86.7076 329.27 82.32 335.187 82.32C341.104 82.32 345.901 86.7076 345.901 92.12Z"
                                fill="#222222" />
        <path
                                d="M237.539 92.12C237.539 86.7076 242.336 82.32 248.253 82.32H277.027C282.944 82.32 287.741 86.7076 287.741 92.12C287.741 97.5324 282.944 101.92 277.027 101.92H248.253C242.336 101.92 237.539 97.5324 237.539 92.12Z"
                                fill="#222222" />
        <path
                                d="M72.2414 92.12C72.2414 97.5324 67.4446 101.92 61.5276 101.92C55.6105 101.92 50.8138 97.5324 50.8138 92.12C50.8138 86.7076 55.6105 82.32 61.5276 82.32C67.4446 82.32 72.2414 86.7076 72.2414 92.12Z"
                                fill="#222222" />
        <path
                                d="M101.015 92.12C101.015 97.5324 96.2187 101.92 90.3016 101.92C84.3846 101.92 79.5879 97.5324 79.5879 92.12C79.5879 86.7076 84.3846 82.32 90.3016 82.32C96.2187 82.32 101.015 86.7076 101.015 92.12Z"
                                fill="#222222" />
        <path
                                d="M-7.34656 92.12C-7.34656 86.7076 -2.54985 82.32 3.3672 82.32H32.1413C38.0583 82.32 42.855 86.7076 42.855 92.12C42.855 97.5324 38.0583 101.92 32.1413 101.92H3.3672C-2.54985 101.92 -7.34656 97.5324 -7.34656 92.12Z"
                                fill="#222222" />
        <path
                                d="M442.631 92.12C442.631 97.5324 437.834 101.92 431.917 101.92C426 101.92 421.204 97.5324 421.204 92.12C421.204 86.7076 426 82.32 431.917 82.32C437.834 82.32 442.631 86.7076 442.631 92.12Z"
                                fill="#222222" />
        <path
                                d="M471.405 92.12C471.405 97.5324 466.608 101.92 460.691 101.92C454.774 101.92 449.978 97.5324 449.978 92.12C449.978 86.7076 454.774 82.32 460.691 82.32C466.608 82.32 471.405 86.7076 471.405 92.12Z"
                                fill="#222222" />
        <path
                                d="M363.043 92.12C363.043 86.7076 367.84 82.32 373.757 82.32H402.531C408.448 82.32 413.245 86.7076 413.245 92.12C413.245 97.5324 408.448 101.92 402.531 101.92H373.757C367.84 101.92 363.043 97.5324 363.043 92.12Z"
                                fill="#222222" />
        <path
                                d="M197.745 92.12C197.745 97.5324 192.949 101.92 187.032 101.92C181.114 101.92 176.318 97.5324 176.318 92.12C176.318 86.7076 181.114 82.32 187.032 82.32C192.949 82.32 197.745 86.7076 197.745 92.12Z"
                                fill="#FF0000" />
        <path
                                d="M226.519 92.12C226.519 97.5324 221.723 101.92 215.806 101.92C209.888 101.92 205.092 97.5324 205.092 92.12C205.092 86.7076 209.888 82.32 215.806 82.32C221.723 82.32 226.519 86.7076 226.519 92.12Z"
                                fill="#FF0000" />
        <path
                                d="M118.157 92.12C118.157 86.7076 122.954 82.32 128.871 82.32H157.645C163.562 82.32 168.359 86.7076 168.359 92.12C168.359 97.5324 163.562 101.92 157.645 101.92H128.871C122.954 101.92 118.157 97.5324 118.157 92.12Z"
                                fill="#FF0000" />
        <path
                                d="M126.875 231.414C125.553 231.414 124.377 231.101 123.349 230.474C122.32 229.831 121.512 228.921 120.925 227.741C120.337 226.546 120.043 225.113 120.043 223.44C120.043 221.767 120.337 220.341 120.925 219.162C121.512 217.967 122.32 217.056 123.349 216.429C124.377 215.786 125.553 215.466 126.875 215.466C128.198 215.466 129.373 215.786 130.402 216.429C131.43 217.056 132.238 217.967 132.826 219.162C133.43 220.341 133.732 221.767 133.732 223.44C133.732 225.113 133.43 226.546 132.826 227.741C132.238 228.921 131.43 229.831 130.402 230.474C129.373 231.101 128.198 231.414 126.875 231.414ZM126.875 229.936C127.887 229.936 128.769 229.69 129.52 229.197C130.271 228.689 130.859 227.957 131.283 227.002C131.707 226.031 131.92 224.844 131.92 223.44C131.92 222.036 131.707 220.857 131.283 219.901C130.859 218.93 130.271 218.198 129.52 217.706C128.769 217.198 127.887 216.944 126.875 216.944C125.896 216.944 125.022 217.198 124.255 217.706C123.488 218.198 122.892 218.93 122.467 219.901C122.043 220.857 121.831 222.036 121.831 223.44C121.831 224.844 122.043 226.031 122.467 227.002C122.892 227.957 123.488 228.689 124.255 229.197C125.022 229.69 125.896 229.936 126.875 229.936Z"
                                fill="white" />
        <path d="M139.244 231.28V216.272L140.028 217.034H135.204V215.6H141.008V231.28H139.244Z"
                                fill="white" />
        <path
                                d="M144.787 231.28V230.138L151.914 223.754C152.566 223.171 153.056 222.663 153.383 222.23C153.709 221.782 153.93 221.364 154.044 220.976C154.158 220.588 154.215 220.222 154.215 219.878C154.215 218.967 153.872 218.25 153.186 217.728C152.517 217.205 151.521 216.944 150.199 216.944C149.187 216.944 148.289 217.086 147.506 217.37C146.738 217.653 146.077 218.094 145.522 218.691L144.273 217.706C144.942 216.989 145.799 216.436 146.844 216.048C147.889 215.66 149.056 215.466 150.346 215.466C151.505 215.466 152.509 215.637 153.358 215.981C154.207 216.309 154.86 216.794 155.318 217.437C155.791 218.079 156.028 218.833 156.028 219.699C156.028 220.207 155.946 220.707 155.782 221.2C155.635 221.693 155.358 222.215 154.95 222.768C154.558 223.306 153.979 223.918 153.212 224.605L146.673 230.474L146.183 229.846H156.811V231.28H144.787Z"
                                fill="white" />
        <path
                                d="M165.809 231.414C164.486 231.414 163.311 231.101 162.282 230.474C161.254 229.831 160.446 228.921 159.858 227.741C159.27 226.546 158.976 225.113 158.976 223.44C158.976 221.767 159.27 220.341 159.858 219.162C160.446 217.967 161.254 217.056 162.282 216.429C163.311 215.786 164.486 215.466 165.809 215.466C167.131 215.466 168.306 215.786 169.335 216.429C170.363 217.056 171.171 217.967 171.759 219.162C172.363 220.341 172.665 221.767 172.665 223.44C172.665 225.113 172.363 226.546 171.759 227.741C171.171 228.921 170.363 229.831 169.335 230.474C168.306 231.101 167.131 231.414 165.809 231.414ZM165.809 229.936C166.821 229.936 167.702 229.69 168.453 229.197C169.204 228.689 169.792 227.957 170.216 227.002C170.641 226.031 170.853 224.844 170.853 223.44C170.853 222.036 170.641 220.857 170.216 219.901C169.792 218.93 169.204 218.198 168.453 217.706C167.702 217.198 166.821 216.944 165.809 216.944C164.829 216.944 163.955 217.198 163.188 217.706C162.42 218.198 161.825 218.93 161.401 219.901C160.976 220.857 160.764 222.036 160.764 223.44C160.764 224.844 160.976 226.031 161.401 227.002C161.825 227.957 162.42 228.689 163.188 229.197C163.955 229.69 164.829 229.936 165.809 229.936Z"
                                fill="white" />
        <path
                                d="M182.022 231.414C180.7 231.414 179.525 231.101 178.496 230.474C177.468 229.831 176.659 228.921 176.072 227.741C175.484 226.546 175.19 225.113 175.19 223.44C175.19 221.767 175.484 220.341 176.072 219.162C176.659 217.967 177.468 217.056 178.496 216.429C179.525 215.786 180.7 215.466 182.022 215.466C183.345 215.466 184.52 215.786 185.549 216.429C186.577 217.056 187.385 217.967 187.973 219.162C188.577 220.341 188.879 221.767 188.879 223.44C188.879 225.113 188.577 226.546 187.973 227.741C187.385 228.921 186.577 229.831 185.549 230.474C184.52 231.101 183.345 231.414 182.022 231.414ZM182.022 229.936C183.034 229.936 183.916 229.69 184.667 229.197C185.418 228.689 186.006 227.957 186.43 227.002C186.855 226.031 187.067 224.844 187.067 223.44C187.067 222.036 186.855 220.857 186.43 219.901C186.006 218.93 185.418 218.198 184.667 217.706C183.916 217.198 183.034 216.944 182.022 216.944C181.043 216.944 180.169 217.198 179.402 217.706C178.635 218.198 178.039 218.93 177.614 219.901C177.19 220.857 176.978 222.036 176.978 223.44C176.978 224.844 177.19 226.031 177.614 227.002C178.039 227.957 178.635 228.689 179.402 229.197C180.169 229.69 181.043 229.936 182.022 229.936Z"
                                fill="white" />
        <path
                                d="M196.742 215.466C198.261 215.466 199.543 215.779 200.587 216.406C201.632 217.018 202.424 217.907 202.963 219.072C203.501 220.237 203.771 221.648 203.771 223.306C203.771 225.068 203.436 226.554 202.767 227.763C202.114 228.973 201.2 229.884 200.024 230.496C198.849 231.108 197.486 231.414 195.935 231.414C195.167 231.414 194.433 231.347 193.731 231.213C193.045 231.078 192.424 230.862 191.869 230.563L192.579 229.264C193.021 229.533 193.526 229.727 194.098 229.846C194.686 229.951 195.29 230.003 195.91 230.003C197.755 230.003 199.224 229.466 200.318 228.39C201.428 227.315 201.984 225.71 201.984 223.574C201.984 223.231 201.958 222.82 201.91 222.342C201.877 221.865 201.787 221.386 201.64 220.909L202.252 221.334C202.089 222.111 201.738 222.775 201.199 223.328C200.677 223.866 200.024 224.276 199.241 224.56C198.473 224.844 197.616 224.986 196.669 224.986C195.542 224.986 194.539 224.791 193.657 224.403C192.792 224.015 192.115 223.47 191.625 222.768C191.135 222.066 190.89 221.237 190.89 220.282C190.89 219.296 191.143 218.445 191.649 217.728C192.155 217.011 192.849 216.458 193.731 216.07C194.628 215.667 195.632 215.466 196.742 215.466ZM196.816 216.832C196 216.832 195.273 216.974 194.636 217.258C194.016 217.526 193.526 217.914 193.167 218.422C192.808 218.93 192.628 219.535 192.628 220.237C192.628 221.267 193.012 222.089 193.779 222.701C194.563 223.313 195.616 223.619 196.938 223.619C197.82 223.619 198.588 223.47 199.241 223.171C199.91 222.873 200.424 222.462 200.783 221.939C201.159 221.417 201.347 220.834 201.347 220.192C201.347 219.61 201.175 219.065 200.833 218.557C200.49 218.049 199.983 217.638 199.314 217.325C198.645 216.996 197.812 216.832 196.816 216.832Z"
                                fill="white" />
        <path d="M209.314 231.28V216.272L210.098 217.034H205.274V215.6H211.077V231.28H209.314Z"
                                fill="white" />
        <path d="M218.163 231.28V216.272L218.947 217.034H214.123V215.6H219.926V231.28H218.163Z"
                                fill="white" />
        <path d="M227.012 231.28V216.272L227.795 217.034H222.971V215.6H228.775V231.28H227.012Z"
                                fill="white" />
    </g>
    <defs>
        <clipPath id="clip0_136_4">
            <rect width="477.527" height="280" fill="white" />
        </clipPath>
    </defs>
</svg>