<svg width="174" height="100" viewBox="0 0 174 100" fill="none" xmlns="http://www.w3.org/2000/svg">
    <path
                        d="M0 15.2709C0 6.83699 7.14709 0 15.9635 0H56.002C64.8184 0 71.9655 6.83699 71.9655 15.2709C71.9655 23.7047 64.8184 30.5417 56.002 30.5417H15.9635C7.14709 30.5417 0 23.7047 0 15.2709Z"
                        fill="#FF0000" />
    <path
                        d="M97.957 30.5417C107.012 30.5417 114.353 23.7047 114.353 15.2709C114.353 6.83699 107.012 0 97.957 0C88.9018 0 81.5607 6.83699 81.5607 15.2709C81.5607 23.7047 88.9018 30.5417 97.957 30.5417Z"
                        fill="#FF0000" />
    <path
                        d="M138.96 30.5417C148.016 30.5417 155.356 23.7047 155.356 15.2709C155.356 6.83699 148.016 0 138.96 0C129.905 0 122.564 6.83699 122.564 15.2709C122.564 23.7047 129.905 30.5417 138.96 30.5417Z"
                        fill="#FF0000" />
    <path d="M6.35569 55.5477V70.5936H8.16101V55.5477H14.2447V54.0336H0.272012V55.5477H6.35569Z"
                        fill="white" />
    <path
                        d="M19.287 62.9288V69.0795H29.6985V70.5936H17.4569V54.0336H29.3275V55.5477H19.287V61.4384H28.2394V62.9288H19.287Z"
                        fill="white" />
    <path fill-rule="evenodd" clip-rule="evenodd"
                        d="M33.7587 54.0336V70.5936H35.5888V65.3654H40.2381C41.7054 65.3654 42.9667 65.1365 44.0219 64.6795C45.077 64.2218 45.8849 63.5754 46.4454 62.7396C47.0225 61.8879 47.311 60.8785 47.311 59.7113C47.311 58.5128 47.0225 57.4954 46.4454 56.6595C45.8849 55.8079 45.077 55.1613 44.0219 54.7197C42.9667 54.2623 41.7054 54.0336 40.2381 54.0336H33.7587ZM35.5888 63.8278H40.1886C41.9198 63.8278 43.2305 63.4729 44.1208 62.7632C45.0275 62.0377 45.481 61.0204 45.481 59.7113C45.481 58.3865 45.0275 57.3614 44.1208 56.6359C43.2305 55.9104 41.9198 55.5477 40.1886 55.5477H35.5888V63.8278Z"
                        fill="white" />
    <path fill-rule="evenodd" clip-rule="evenodd"
                        d="M51.0507 54.0336V70.5936H52.8808V65.3654H57.5301C58.9974 65.3654 60.2586 65.1365 61.3138 64.6795C62.369 64.2218 63.1768 63.5754 63.7374 62.7396C64.3144 61.8879 64.603 60.8785 64.603 59.7113C64.603 58.5128 64.3144 57.4954 63.7374 56.6595C63.1768 55.8079 62.369 55.1613 61.3138 54.7197C60.2586 54.2623 58.9974 54.0336 57.5301 54.0336H51.0507ZM52.8808 63.8278H57.4806C59.2117 63.8278 60.5225 63.4729 61.4127 62.7632C62.3195 62.0377 62.7729 61.0204 62.7729 59.7113C62.7729 58.3865 62.3195 57.3614 61.4127 56.6359C60.5225 55.9104 59.2117 55.5477 57.4806 55.5477H52.8808V63.8278Z"
                        fill="white" />
    <path
                        d="M68.3427 54.0336V70.5936H69.9996L81.079 56.8962V70.5936H82.8844V54.0336H81.2271L70.148 67.7551V54.0336H68.3427Z"
                        fill="white" />
    <path d="M92.1632 55.5477V70.5936H93.9686V55.5477H100.052V54.0336H86.0797V55.5477H92.1632Z"
                        fill="white" />
    <path fill-rule="evenodd" clip-rule="evenodd"
                        d="M106.98 70.1205C108.101 70.5308 109.313 70.7359 110.615 70.7359C111.918 70.7359 113.122 70.5308 114.226 70.1205C115.33 69.6949 116.287 69.1032 117.095 68.3462C117.919 67.5891 118.554 66.6981 118.999 65.6731C119.46 64.6481 119.691 63.5281 119.691 62.3137C119.691 61.0993 119.46 59.9795 118.999 58.9544C118.554 57.9292 117.919 57.0381 117.095 56.281C116.287 55.524 115.33 54.9404 114.226 54.5304C113.122 54.1046 111.918 53.8917 110.615 53.8917C109.296 53.8917 108.085 54.1046 106.98 54.5304C105.875 54.9404 104.911 55.5319 104.087 56.3047C103.279 57.0617 102.644 57.9528 102.183 58.978C101.738 59.9874 101.515 61.0993 101.515 62.3137C101.515 63.5281 101.738 64.6481 102.183 65.6731C102.644 66.6827 103.279 67.5737 104.087 68.3462C104.911 69.1032 105.875 69.6949 106.98 70.1205ZM113.484 68.6776C112.61 69.009 111.654 69.1744 110.615 69.1744C109.577 69.1744 108.612 69.009 107.722 68.6776C106.832 68.3308 106.057 67.8494 105.397 67.2346C104.754 66.6038 104.243 65.8705 103.864 65.0346C103.501 64.1987 103.32 63.2915 103.32 62.3137C103.32 61.3201 103.501 60.4132 103.864 59.5931C104.243 58.7572 104.754 58.0317 105.397 57.4166C106.057 56.7858 106.832 56.3047 107.722 55.9735C108.612 55.6265 109.577 55.453 110.615 55.453C111.654 55.453 112.61 55.6265 113.484 55.9735C114.374 56.3047 115.141 56.7858 115.784 57.4166C116.443 58.0317 116.955 58.7572 117.318 59.5931C117.68 60.4132 117.861 61.3201 117.861 62.3137C117.861 63.3073 117.68 64.2218 117.318 65.0577C116.955 65.8782 116.443 66.6038 115.784 67.2346C115.141 67.8494 114.374 68.3308 113.484 68.6776Z"
                        fill="white" />
    <path fill-rule="evenodd" clip-rule="evenodd"
                        d="M130.538 54.0336H124.058V70.5936H125.888V65.3654H130.538C132.005 65.3654 133.267 65.1365 134.322 64.6795C135.377 64.2218 136.184 63.5754 136.745 62.7396C137.322 61.8879 137.611 60.8785 137.611 59.7113C137.611 58.5128 137.322 57.4954 136.745 56.6595C136.184 55.8079 135.377 55.1613 134.322 54.7197C133.267 54.2623 132.005 54.0336 130.538 54.0336ZM125.888 63.8278H130.488C132.22 63.8278 133.53 63.4729 134.421 62.7632C135.327 62.0377 135.78 61.0204 135.78 59.7113C135.78 58.3865 135.327 57.3614 134.421 56.6359C133.53 55.9104 132.22 55.5477 130.488 55.5477H125.888V63.8278Z"
                        fill="white" />
    <path
                        d="M143.156 54.0336H141.351V70.5936H143.007L154.086 56.8962V70.5936H155.892V54.0336H154.235L143.156 67.7551V54.0336Z"
                        fill="white" />
    <path fill-rule="evenodd" clip-rule="evenodd"
                        d="M172.195 65.5782V70.5936H174V54.0336H167.274C165.905 54.0336 164.701 54.2623 163.663 54.7197C162.64 55.1613 161.849 55.8237 161.289 56.7069C160.728 57.5743 160.447 58.6389 160.447 59.9006C160.447 61.0835 160.703 62.1008 161.215 62.9524C161.742 63.7883 162.492 64.4353 163.465 64.8923C163.75 65.0237 164.05 65.1365 164.368 65.2301L160.447 70.5936H162.402L166.033 65.5365C166.352 65.5641 166.683 65.5782 167.026 65.5782H172.195ZM172.195 64.088V55.5477H167.348C165.732 55.5477 164.479 55.9183 163.589 56.6595C162.714 57.3851 162.278 58.4497 162.278 59.8533C162.278 61.2097 162.69 62.2585 163.514 62.9997C164.339 63.7253 165.559 64.088 167.174 64.088H172.195Z"
                        fill="white" />
    <path fill-rule="evenodd" clip-rule="evenodd"
                        d="M12.1921 98.2891V100H10.4856V98.2878C8.68805 98.2378 7.13006 97.9647 5.81162 97.4686C4.34429 96.9006 3.21493 96.0808 2.42356 95.0083C1.63219 93.9359 1.2365 92.6423 1.2365 91.1282C1.2365 89.6141 1.63219 88.3288 2.42356 87.2724C3.21493 86.2 4.34429 85.3795 5.81162 84.8122C7.13006 84.3019 8.68805 84.0205 10.4856 83.9692V82.3045H12.1921V83.9699C13.9945 84.0231 15.5526 84.3038 16.8661 84.8122C18.3335 85.3795 19.4628 86.2 20.2542 87.2724C21.0456 88.3288 21.4412 89.6141 21.4412 91.1282C21.4412 92.6423 21.0456 93.9359 20.2542 95.0083C19.4793 96.0808 18.3582 96.9006 16.8909 97.4686C15.5614 97.9686 13.9952 98.2423 12.1921 98.2891ZM10.4856 85.3731C9.08508 85.432 7.865 85.6474 6.82557 86.0186C5.58906 86.4602 4.64105 87.1147 3.98158 87.982C3.3221 88.834 2.99236 89.8827 2.99236 91.1282C2.99236 92.3904 3.3221 93.4545 3.98158 94.3224C4.65754 95.1737 5.61378 95.8205 6.8503 96.2622C7.90009 96.6321 9.1119 96.8468 10.4856 96.907V85.3731ZM12.1921 85.3679V96.9051C13.6171 96.8397 14.8537 96.618 15.9016 96.2385C17.1381 95.7808 18.0779 95.1263 18.7209 94.275C19.3639 93.4077 19.6853 92.3583 19.6853 91.1282C19.6853 89.8827 19.3556 88.834 18.6961 87.982C18.0532 87.1301 17.1217 86.484 15.9016 86.0423C14.8574 85.6455 13.6209 85.4205 12.1921 85.3679Z"
                        fill="white" />
    <path
                        d="M25.5958 82.8718V99.432H27.2527L38.3319 85.7346V99.432H40.1373V82.8718H38.4803L27.4011 96.5936V82.8718H25.5958Z"
                        fill="white" />
    <path d="M49.4166 84.3859V99.432H51.2218V84.3859H57.3055V82.8718H43.3329V84.3859H49.4166Z"
                        fill="white" />
    <path
                        d="M74.9854 82.8718H73.1799V90.2532H62.3479V82.8718H60.5178V99.432H62.3479V91.791H73.1799V99.432H74.9854V82.8718Z"
                        fill="white" />
    <path
                        d="M82.6586 91.7673V97.9179H93.0699V99.432H80.8287V82.8718H92.6988V84.3859H82.6586V90.2769H91.611V91.7673H82.6586Z"
                        fill="white" />
    <path
                        d="M101.039 98.959C102.144 99.3692 103.347 99.5743 104.649 99.5743C105.919 99.5743 107.106 99.3692 108.211 98.959C109.315 98.5487 110.247 97.9417 111.006 97.1372L109.843 96.0256C109.134 96.7192 108.351 97.2244 107.494 97.5397C106.636 97.8551 105.713 98.0128 104.724 98.0128C103.685 98.0128 102.72 97.8474 101.83 97.516C100.94 97.1692 100.165 96.6878 99.5057 96.0731C98.8464 95.4423 98.3265 94.7167 97.9476 93.8961C97.5852 93.0602 97.4033 92.1455 97.4033 91.1519C97.4033 90.1583 97.5852 89.2519 97.9476 88.4314C98.3265 87.5955 98.8464 86.8699 99.5057 86.2551C100.165 85.6244 100.94 85.1429 101.83 84.8122C102.72 84.4647 103.685 84.2917 104.724 84.2917C105.713 84.2917 106.636 84.4494 107.494 84.7647C108.351 85.0641 109.134 85.5609 109.843 86.2551L111.006 85.1429C110.247 84.3385 109.315 83.7397 108.211 83.3449C107.106 82.9353 105.927 82.7301 104.675 82.7301C103.372 82.7301 102.168 82.9429 101.064 83.3686C99.9594 83.7788 98.9945 84.3622 98.1705 85.1192C97.3623 85.8763 96.7274 86.7673 96.2658 87.7929C95.8208 88.8179 95.5986 89.9378 95.5986 91.1519C95.5986 92.3667 95.8208 93.4865 96.2658 94.5115C96.7274 95.5365 97.3623 96.4276 98.1705 97.1846C98.9779 97.9417 99.9342 98.5333 101.039 98.959Z"
                        fill="white" />
    <path fill-rule="evenodd" clip-rule="evenodd"
                        d="M121.522 82.8718H119.716L111.803 99.432H113.707L115.776 95.0083H125.437L127.507 99.432H129.435L121.522 82.8718ZM124.773 93.5891L120.606 84.682L116.441 93.5891H124.773Z"
                        fill="white" />
</svg>