<svg width="355" height="50" viewBox="0 0 355 50" fill="none" xmlns="http://www.w3.org/2000/svg">
    <path
                        d="M330.418 0.00415338C327.162 0.0194902 323.524 0.233563 320.451 1.45459C318.217 2.3426 316.265 3.81621 315.141 6.1149C314.017 8.4136 313.721 11.4735 314.524 15.5175C315.68 20.0054 317.469 24.0257 319.248 27.4757C317.678 30.2834 316.64 33.4282 316.64 36.8436C316.64 40.5132 317.7 43.9377 319.531 46.8059C320.187 47.8328 321.266 48.6012 322.434 49.1424C323.601 49.6835 324.869 50 326.018 50H343.052C344.201 50 345.468 49.6835 346.636 49.1424C347.803 48.6012 348.876 47.8328 349.532 46.8059C351.363 43.9377 352.429 40.5132 352.429 36.8436C352.429 33.3377 351.345 30.1316 349.722 27.4111C351.843 23.2512 353.621 19.7204 354.545 15.5175C355.349 11.4735 355.053 8.41376 353.929 6.1149C352.805 3.81606 350.853 2.34274 348.619 1.45459C344.149 -0.321725 338.483 0.0324805 334.537 0.0309549C334.536 0.0309468 334.534 0.0309468 334.532 0.0309549H334.531C333.298 0.0317217 331.898 -0.00286924 330.418 0.00415338ZM334.245 6.5704C336.934 6.58154 340.419 6.36189 343.247 7.39503C344.661 7.91157 345.935 8.79167 346.672 10.1777C347.41 11.5637 347.586 13.3806 347.082 15.7082C346.414 18.0595 345.377 20.3159 344.261 22.0949C344.251 22.1083 344.24 22.1215 344.228 22.1343V22.1359C344.212 22.1713 344.194 22.2055 344.173 22.2384C343.932 22.6225 343.407 22.7483 343.002 22.519C340.384 21.0412 337.554 20.1952 334.532 20.1952C331.409 20.1952 328.509 21.0976 326.08 22.7161C325.385 23.1199 325.026 22.9543 324.765 22.3109C323.586 19.9951 322.503 17.7295 321.987 15.7083C321.484 13.3807 321.658 11.5637 322.396 10.1777C323.133 8.79171 324.409 7.91161 325.823 7.39507C328.849 6.45302 331.556 6.55923 334.245 6.5704Z"
                        fill="#3A4D5C" />
    <path
                        d="M325.826 7.39503C328.815 6.46164 331.638 6.55828 334.536 6.57992C336.932 6.58154 340.417 6.36177 343.245 7.395C343.682 7.55452 344.103 7.75111 344.501 7.98463C346.481 6.1118 348.46 4.23862 350.44 2.36578C345.705 -0.38538 341.543 0.0308926 335.838 0.032507C330.133 0.0341214 323.583 -0.437873 318.971 2.1624L325.826 7.39503Z"
                        fill="#C8DAE5" />
    <path
                        d="M317.485 42.415C317.976 43.9812 318.668 45.4537 319.531 46.8059C320.187 47.8328 321.266 48.6012 322.434 49.1424C323.601 49.6835 324.869 50 326.018 50H343.052C344.201 50 345.468 49.6835 346.636 49.1424C347.803 48.6012 348.876 47.8328 349.532 46.8059C350.394 45.4543 351.089 43.9807 351.579 42.415C340.215 42.415 328.85 42.415 317.485 42.415Z"
                        fill="#C8DAE5" />
    <path
                        d="M317.062 40.7991C317.181 41.3486 317.329 41.8852 317.495 42.4151H327.473C327.585 42.4155 327.697 42.3948 327.801 42.3543C327.905 42.3137 328 42.254 328.079 42.1787C328.159 42.1033 328.222 42.0138 328.265 41.9153C328.308 41.8168 328.329 41.7113 328.329 41.6047C328.329 41.4986 328.306 41.3936 328.263 41.2956C328.22 41.1976 328.157 41.1087 328.077 41.0339C327.998 40.959 327.903 40.8998 327.8 40.8595C327.696 40.8192 327.585 40.7987 327.473 40.7991H317.062ZM342.152 40.7991C341.927 40.8 341.711 40.8852 341.551 41.0361C341.392 41.187 341.303 41.3915 341.302 41.6047C341.302 41.7107 341.323 41.8158 341.366 41.9139C341.408 42.012 341.471 42.1012 341.55 42.1764C341.629 42.2517 341.722 42.3115 341.826 42.3524C341.929 42.3934 342.04 42.4147 342.152 42.4151H351.571C351.738 41.8853 351.885 41.3485 352.004 40.7991H342.152Z"
                        fill="#143441" />
    <path
                        d="M334.815 24.0322C328.622 24.0322 323.58 28.8024 323.58 34.6624C323.58 40.5225 328.622 45.2927 334.815 45.2927C341.008 45.2927 346.044 40.5225 346.044 34.6624C346.044 28.8024 341.008 24.0322 334.815 24.0322Z"
                        fill="#143441" />
    <path
                        d="M334.815 25.647C340.086 25.647 344.337 29.6749 344.337 34.6624C344.337 39.65 340.086 43.6779 334.815 43.6779C329.544 43.6779 325.287 39.65 325.287 34.6624C325.287 29.6749 329.544 25.647 334.815 25.647Z"
                        fill="#C8DAE5" />
    <path
                        d="M329.047 33.858C328.821 33.8587 328.605 33.9437 328.446 34.0944C328.287 34.2451 328.197 34.4493 328.196 34.6624C328.197 34.8755 328.287 35.0798 328.446 35.2305C328.606 35.3812 328.821 35.4661 329.047 35.4668H340.577C340.689 35.4673 340.8 35.4468 340.904 35.4066C341.008 35.3664 341.102 35.3072 341.182 35.2325C341.261 35.1578 341.324 35.0691 341.368 34.9713C341.411 34.8734 341.433 34.7685 341.434 34.6624C341.433 34.5564 341.411 34.4515 341.368 34.3537C341.324 34.2559 341.261 34.1671 341.182 34.0924C341.102 34.0177 341.008 33.9585 340.904 33.9183C340.8 33.878 340.689 33.8576 340.577 33.858H329.047Z"
                        fill="#3A4D5C" />
    <path
                        d="M330.489 31.6712C330.377 31.6715 330.266 31.6928 330.162 31.7337C330.059 31.7746 329.965 31.8344 329.886 31.9097C329.807 31.9849 329.745 32.0742 329.702 32.1723C329.66 32.2705 329.638 32.3755 329.638 32.4815V36.8433C329.638 36.9493 329.66 37.0543 329.702 37.1525C329.745 37.2506 329.807 37.3399 329.886 37.4151C329.965 37.4904 330.059 37.5501 330.162 37.5911C330.266 37.632 330.377 37.6533 330.489 37.6536C330.601 37.6541 330.713 37.6334 330.817 37.5928C330.921 37.5523 331.016 37.4926 331.095 37.4172C331.175 37.3419 331.238 37.2524 331.281 37.1539C331.324 37.0553 331.346 36.9498 331.345 36.8433V32.4815C331.346 32.375 331.324 32.2694 331.281 32.1709C331.238 32.0724 331.175 31.9829 331.095 31.9075C331.016 31.8322 330.921 31.7725 330.817 31.732C330.713 31.6914 330.601 31.6707 330.489 31.6712Z"
                        fill="#143441" />
    <path
                        d="M339.135 31.6712C339.023 31.6715 338.912 31.6928 338.809 31.7337C338.705 31.7746 338.612 31.8344 338.533 31.9097C338.454 31.9849 338.391 32.0742 338.349 32.1723C338.306 32.2705 338.285 32.3755 338.285 32.4815V36.8433C338.285 36.9493 338.306 37.0543 338.349 37.1525C338.391 37.2506 338.454 37.3399 338.533 37.4151C338.612 37.4904 338.705 37.5501 338.809 37.5911C338.912 37.632 339.023 37.6533 339.135 37.6536C339.248 37.6541 339.359 37.6334 339.463 37.5928C339.568 37.5523 339.662 37.4926 339.742 37.4172C339.821 37.3419 339.884 37.2524 339.927 37.1539C339.97 37.0553 339.992 36.9498 339.992 36.8433V32.4815C339.992 32.375 339.97 32.2694 339.927 32.1709C339.884 32.0724 339.821 31.9829 339.742 31.9075C339.662 31.8322 339.568 31.7725 339.463 31.732C339.359 31.6914 339.248 31.6707 339.135 31.6712Z"
                        fill="#143441" />
    <path
                        d="M346.526 23.6226C347.434 24.6043 347.877 25.3142 347.877 25.3142C349.653 28.1132 350.723 31.5439 350.723 35.2292C350.723 38.8988 349.656 42.3233 347.825 45.1915C347.17 46.2184 346.097 46.9868 344.93 47.5279C343.762 48.0691 342.495 48.3856 341.346 48.3856H324.312C323.163 48.3856 321.895 48.0691 320.728 47.5279C320.337 47.3467 319.957 47.1385 319.598 46.9052C320.259 47.8822 321.304 48.6189 322.434 49.1424C323.601 49.6835 324.869 50 326.018 50H343.052C344.201 50 345.468 49.6835 346.636 49.1424C347.803 48.6012 348.876 47.8328 349.532 46.8059C351.363 43.9377 352.429 40.5132 352.429 36.8436C352.429 33.1583 351.359 29.7276 349.583 26.9286C349.583 26.9286 348.592 25.3411 346.526 23.6226Z"
                        fill="#143441" />
    <path
                        d="M346.209 18.2339C345.653 19.632 345.014 20.9086 344.261 22.0949C343.997 22.6045 343.489 22.7591 343.002 22.519C342.841 22.4283 342.677 22.3479 342.515 22.262L349.74 27.4426C349.734 27.4322 349.728 27.4214 349.722 27.4111C350.576 25.8778 351.388 24.2487 352.141 22.4875L346.209 18.2339ZM316.9 22.478C317.633 24.2336 318.418 25.8746 319.236 27.452L326.3 22.5804C325.629 23.0718 325.005 22.89 324.765 22.3109C324.104 21.1269 323.47 19.8113 322.894 18.3442L316.9 22.478Z"
                        fill="#143441" />
    <path
                        d="M320.075 1.62009C318.358 2.36556 316.836 3.47508 315.761 5.0633L322.047 11.0117C322.672 9.3002 324.568 7.88462 326.088 7.3099L320.075 1.62009ZM349.323 1.76356L343.335 7.4313C345.413 8.43218 346.493 9.52922 347.134 11.3617L353.497 5.34077C352.481 3.70542 351.005 2.55173 349.323 1.76356Z"
                        fill="#143441" />
    <path
                        d="M349.28 42.4152C347.963 45.783 345.2 48.3456 341.346 48.3856H324.312C322.445 48.276 321.028 47.6106 319.6 46.9053C319.602 46.9088 319.604 46.9128 319.606 46.9163C320.84 48.6218 323.452 49.8748 326.018 50H343.052C347.623 50 350.705 46.6851 351.576 42.4152L349.28 42.4152Z"
                        fill="#3A4D5C" />
    <path
                        d="M344.463 34.9266C344.463 40.0027 339.928 44.1178 334.332 44.1178C328.737 44.1178 324.201 40.0027 324.201 34.9266C324.201 29.8504 328.737 25.7354 334.332 25.7354C339.928 25.7354 344.463 29.8504 344.463 34.9266Z"
                        fill="#040404" />
    <path
                        d="M318.933 34.9266C318.933 40.0027 314.397 44.1178 308.801 44.1178C303.206 44.1178 298.67 40.0027 298.67 34.9266C298.67 29.8504 303.206 25.7354 308.801 25.7354C314.397 25.7354 318.933 29.8504 318.933 34.9266Z"
                        fill="#040404" />
    <path
                        d="M248.824 34.9266C248.824 29.8504 253.36 25.7354 258.955 25.7354H283.271C288.866 25.7354 293.402 29.8504 293.402 34.9266C293.402 40.0027 288.866 44.1178 283.271 44.1178H258.955C253.36 44.1178 248.824 40.0027 248.824 34.9266Z"
                        fill="#040404" />
    <path
                        d="M220.051 34.9266C220.051 40.0027 215.515 44.1178 209.92 44.1178C204.325 44.1178 199.789 40.0027 199.789 34.9266C199.789 29.8504 204.325 25.7354 209.92 25.7354C215.515 25.7354 220.051 29.8504 220.051 34.9266Z"
                        fill="white" />
    <path
                        d="M194.521 34.9266C194.521 40.0027 189.985 44.1178 184.389 44.1178C178.794 44.1178 174.258 40.0027 174.258 34.9266C174.258 29.8504 178.794 25.7354 184.389 25.7354C189.985 25.7354 194.521 29.8504 194.521 34.9266Z"
                        fill="white" />
    <path
                        d="M124.412 34.9266C124.412 29.8504 128.948 25.7354 134.543 25.7354H158.858C164.454 25.7354 168.99 29.8504 168.99 34.9266C168.99 40.0027 164.454 44.1178 158.858 44.1178H134.543C128.948 44.1178 124.412 40.0027 124.412 34.9266Z"
                        fill="white" />
    <path
                        d="M95.6393 35.2942C95.6393 40.3704 91.1033 44.4854 85.508 44.4854C79.9126 44.4854 75.3767 40.3704 75.3767 35.2942C75.3767 30.218 79.9126 26.103 85.508 26.103C91.1033 26.103 95.6393 30.218 95.6393 35.2942Z"
                        fill="white" />
    <path
                        d="M70.1084 35.2942C70.1084 40.3704 65.5725 44.4854 59.9772 44.4854C54.3818 44.4854 49.8459 40.3704 49.8459 35.2942C49.8459 30.218 54.3818 26.103 59.9772 26.103C65.5725 26.103 70.1084 30.218 70.1084 35.2942Z"
                        fill="white" />
    <path
                        d="M0 35.2942C0 30.218 4.53593 26.103 10.1313 26.103H34.4463C40.0417 26.103 44.5776 30.218 44.5776 35.2942C44.5776 40.3704 40.0417 44.4854 34.4463 44.4854H10.1313C4.53593 44.4854 0 40.3704 0 35.2942Z"
                        fill="white" />
</svg>